<svg data-testid="icon" name="map-pin-filled" size="15" color="#5D38C0" version="1.1" xmlns="http://www.w3.org/2000/svg" viewBox="0 0 32 32" class="style__Icon-sc-__sc-hqksj3-1 icUOBu"><path d="M13.328 0.039c-3.465 0-6.931 1.333-9.463 3.865-2.399 2.532-3.865 5.864-3.865 9.463 0 5.198 3.332 9.863 6.264 13.062 1.599 1.599 3.065 2.932 4.265 3.865 0.666 0.4 1.066 0.8 1.466 1.066 0.133 0.133 0.267 0.267 0.4 0.267 0.133 0.133 0.133 0.133 0.133 0.133 0.4 0.267 1.066 0.267 1.466 0l0.133-0.133c0.133 0 0.267-0.133 0.4-0.267 0.4-0.267 0.933-0.666 1.466-1.066 1.2-0.933 2.799-2.266 4.265-3.865 3.066-3.199 6.398-7.864 6.398-13.062 0-3.599-1.333-6.931-3.865-9.463s-5.998-3.865-9.463-3.865zM7.997 13.368c0-2.932 2.399-5.331 5.331-5.331s5.331 2.399 5.331 5.331c0 2.932-2.399 5.331-5.331 5.331s-5.331-2.399-5.331-5.331z" class="style__Path-sc-__sc-hqksj3-2 kqvXtw"/></svg>